<svg id="np_image_1269202_000000" xmlns="http://www.w3.org/2000/svg" width="24.424" height="17.522" viewBox="0 0 24.424 17.522">
  <path id="パス_1" data-name="パス 1" d="M28.424,17H4V34.522H28.424Zm-1.062,1.062v12.9l-5.211-5.349-3.565,3.069-5.862-4.588L5.062,31.6V18.062Zm-22.3,15.4v-.377L12.8,25.5l5.817,4.556,3.47-2.981,5.275,5.413v.977Z" transform="translate(-4 -17)" fill="#1a1a1a"/>
  <path id="パス_2" data-name="パス 2" d="M70.983,30.311a2.655,2.655,0,1,0-1.877-.778,2.657,2.657,0,0,0,1.877.778Zm0-4.248a1.593,1.593,0,1,1-1.593,1.593A1.593,1.593,0,0,1,70.983,26.063Z" transform="translate(-51.25 -22.877)" fill="#1a1a1a"/>
</svg>
