<svg xmlns="http://www.w3.org/2000/svg" width="15" height="15" viewBox="0 0 15 15">
  <g id="np_day_2714893_000000" transform="translate(-2.5 -2.5)">
    <path id="パス_16" data-name="パス 16" d="M36.037,32.819A3.217,3.217,0,1,1,32.819,29.6a3.217,3.217,0,0,1,3.217,3.217" transform="translate(-22.827 -22.827)" fill="#fff"/>
    <path id="パス_17" data-name="パス 17" d="M45.874,5.655a.774.774,0,0,0,.773-.773V3.273a.773.773,0,1,0-1.545,0V4.9a.771.771,0,0,0,.773.757Z" transform="translate(-35.882)" fill="#fff"/>
    <path id="パス_18" data-name="パス 18" d="M16.265,17.341a.764.764,0,0,0,1.072-1.088L16.185,15.1A.769.769,0,1,0,15.1,16.19Z" transform="translate(-10.421 -10.425)" fill="#fff"/>
    <path id="パス_19" data-name="パス 19" d="M5.655,45.874a.774.774,0,0,0-.773-.773H3.273a.773.773,0,1,0,0,1.545H4.9a.771.771,0,0,0,.757-.773Z" transform="translate(0 -35.882)" fill="#fff"/>
    <path id="パス_20" data-name="パス 20" d="M16.351,68.3,15.2,69.452a.764.764,0,1,0,1.072,1.088l1.152-1.152a.771.771,0,0,0,0-1.088.752.752,0,0,0-1.072,0Z" transform="translate(-10.507 -55.233)" fill="#fff"/>
    <path id="パス_21" data-name="パス 21" d="M45.874,77.5a.774.774,0,0,0-.773.773V79.9a.773.773,0,0,0,1.545,0V78.273A.774.774,0,0,0,45.874,77.5Z" transform="translate(-35.882 -63.17)" fill="#fff"/>
    <path id="パス_22" data-name="パス 22" d="M69.291,68.3A.769.769,0,0,0,68.2,69.389l1.152,1.152a.764.764,0,0,0,1.072-1.088Z" transform="translate(-55.151 -55.233)" fill="#fff"/>
    <path id="パス_23" data-name="パス 23" d="M79.883,45.1H78.273a.773.773,0,0,0,0,1.545H79.9a.774.774,0,0,0,.773-.773.787.787,0,0,0-.788-.773Z" transform="translate(-63.17 -35.882)" fill="#fff"/>
    <path id="パス_24" data-name="パス 24" d="M68.751,17.663a.779.779,0,0,0,.536-.221l1.152-1.152A.769.769,0,0,0,69.35,15.2L68.2,16.355a.771.771,0,0,0,0,1.088A.819.819,0,0,0,68.751,17.663Z" transform="translate(-55.147 -10.51)" fill="#fff"/>
  </g>
</svg>
