<svg id="flogo_RGB_HEX-144" xmlns="http://www.w3.org/2000/svg" width="20" height="20" viewBox="0 0 20 20">
  <path id="パス_10" data-name="パス 10" d="M18.9,0H1.111A1.111,1.111,0,0,0,0,1.111V18.9A1.111,1.111,0,0,0,1.111,20h9.583V12.265H8.086V9.239h2.6V7.017a3.639,3.639,0,0,1,3.889-3.99,21.633,21.633,0,0,1,2.329.118V5.833h-1.6c-1.25,0-1.5.6-1.5,1.469V9.239h3l-.389,3.026H13.808V20H18.9A1.111,1.111,0,0,0,20,18.9V1.111A1.111,1.111,0,0,0,18.9,0Z" transform="translate(0 0)" fill="#4267b2"/>
  <path id="f" d="M63.942,38.728V30.994h2.608l.389-3.026h-3V26.038c0-.874.243-1.469,1.5-1.469h1.589v-2.7a21.633,21.633,0,0,0-2.329-.118,3.637,3.637,0,0,0-3.882,3.99v2.222h-2.6v3.032h2.6v7.735Z" transform="translate(-50.134 -18.728)" fill="#fff"/>
</svg>
