<svg xmlns="http://www.w3.org/2000/svg" width="21.125" height="17.165" viewBox="0 0 21.125 17.165">
  <g id="Twitter_Logo_Blue" transform="translate(-4.875 -6.399)">
    <path id="パス_9" data-name="パス 9" d="M81.643,115.616a12.248,12.248,0,0,0,12.332-12.332c0-.188,0-.374-.013-.56a8.819,8.819,0,0,0,2.162-2.243,8.651,8.651,0,0,1-2.489.682,4.349,4.349,0,0,0,1.905-2.4,8.686,8.686,0,0,1-2.752,1.052A4.338,4.338,0,0,0,85.4,103.77a12.3,12.3,0,0,1-8.932-4.528,4.337,4.337,0,0,0,1.342,5.786,4.3,4.3,0,0,1-1.967-.542v.055a4.336,4.336,0,0,0,3.477,4.249,4.327,4.327,0,0,1-1.957.074,4.339,4.339,0,0,0,4.049,3.01,8.7,8.7,0,0,1-5.383,1.859A8.825,8.825,0,0,1,75,113.669a12.27,12.27,0,0,0,6.643,1.943" transform="translate(-70.125 -92.051)" fill="#1da1f2"/>
  </g>
</svg>
