<svg id="np_blog_2977649_000000" xmlns="http://www.w3.org/2000/svg" width="20" height="20.234" viewBox="0 0 20 20.234">
  <path id="パス_25" data-name="パス 25" d="M9.04,46.5q.365,0,.73.029c.11.009.22.019.329.034.024,0,.234.038.067.009s.1.014.129.019a9.906,9.906,0,0,1,1.342.325c.21.067.421.148.626.229s-.148-.072-.024-.009c.048.024.1.043.144.062.115.052.229.105.339.162a8.706,8.706,0,0,1,1.18.712.9.9,0,0,1,.253.186c-.081-.133-.11-.086-.019-.014.038.034.081.067.119.1.176.148.349.3.511.459s.325.325.477.491c.072.076.138.158.205.234.034.038.067.081.1.119l.057.072c.062.081.052.067-.034-.048.067.038.138.191.186.253.062.086.119.172.176.257q.2.3.372.615c.105.191.205.387.3.587.024.048.043.1.067.144.043.1.105.1-.009-.024a1.179,1.179,0,0,1,.138.353,8.9,8.9,0,0,1,.406,1.485c.014.086.1.306.062.387,0-.043-.009-.081-.014-.124l.014.129c.009.067.014.129.019.2a8.647,8.647,0,0,1,.038.864.963.963,0,0,0,.955.955.974.974,0,0,0,.955-.955,10.2,10.2,0,0,0-1.853-5.858,10.451,10.451,0,0,0-4.88-3.738,10.13,10.13,0,0,0-3.471-.611.963.963,0,0,0-.955.955.984.984,0,0,0,.96.958Z" transform="translate(-8.079 -35.761)"/>
  <path id="パス_26" data-name="パス 26" d="M9.093,28.248c.358,0,.716.014,1.07.038.176.014.353.029.525.048l.129.014c.076.009.133-.019-.057-.009a1.566,1.566,0,0,1,.291.043,13.971,13.971,0,0,1,2.015.477c.334.105.664.225.993.358a.909.909,0,0,1,.119.048s-.182-.076-.081-.034l.234.1c.162.072.325.153.487.229a14.4,14.4,0,0,1,1.733,1.027c.138.1.272.2.406.3a.53.53,0,0,1,.1.076c-.009-.014-.176-.138-.043-.034.067.052.129.105.2.158.268.22.525.444.779.683a15.774,15.774,0,0,1,1.375,1.5c.105.133-.119-.158.024.029.052.067.1.133.148.2.105.144.205.291.306.439.187.277.363.563.53.854s.325.592.468.892c.072.153.144.306.21.463.024.057.086.129-.019-.052a.909.909,0,0,1,.048.119c.034.076.062.158.1.239a14.16,14.16,0,0,1,.659,2.254c.038.191.072.387.105.578.009.072.09.372.019.105a1.924,1.924,0,0,1,.034.3c.043.41.072.817.081,1.227a.955.955,0,1,0,1.91,0,14.862,14.862,0,0,0-2.812-8.393,15.15,15.15,0,0,0-7.037-5.3,14.789,14.789,0,0,0-5.027-.874.952.952,0,0,0-.012,1.9Z" transform="translate(-8.133 -21.87)"/>
  <path id="パス_27" data-name="パス 27" d="M9.054,9.511c.491,0,.979.019,1.471.057.22.019.439.038.659.067.052,0,.11.014.162.019.1.014.176-.029-.024,0a1.585,1.585,0,0,1,.387.057,17.973,17.973,0,0,1,2.7.654c.425.138.845.291,1.256.463.081.034.225.038,0,0a.431.431,0,0,1,.115.052c.1.043.191.086.291.129.21.1.421.2.626.3A18.022,18.022,0,0,1,19.014,12.7c.172.119.339.243.506.372s-.167-.133,0,0c.043.034.081.067.124.1.1.076.2.158.291.239.344.286.678.587,1,.9s.621.621.912.946c.138.158.277.315.41.473.072.086.148.176.22.268.034.043.067.081.1.124s.052.067.076.1c-.081-.1-.1-.124-.052-.072a21.312,21.312,0,0,1,1.461,2.23c.22.4.425.8.611,1.212.048.105.1.21.144.32a1.248,1.248,0,0,1,.052.115c-.034-.22-.034-.076,0,0,.09.214.172.435.253.654a17.878,17.878,0,0,1,.807,2.979c.024.129.043.257.067.387,0,.043.014.086.019.129.009.067.086.344.009.072a4.7,4.7,0,0,1,.086.788c.048.534.067,1.065.072,1.6a.963.963,0,0,0,.955.955.974.974,0,0,0,.955-.955,19.017,19.017,0,0,0-3.486-10.976,19.367,19.367,0,0,0-9.032-6.907A18.965,18.965,0,0,0,9.054,7.6a.955.955,0,1,0,0,1.91Z" transform="translate(-8.094 -7.601)"/>
  <path id="パス_28" data-name="パス 28" d="M12.445,69.53c0,.057,0,.11,0,.167,0,.133.038-.187.009-.057a2.8,2.8,0,0,1-.067.282.95.95,0,0,1-.043.119c.009,0,.1-.2.009-.029-.048.086-.119.176-.162.268-.052.115.153-.167.014-.019-.029.029-.057.062-.086.09s-.162.176-.182.167c0,0,.186-.115.019-.019-.043.024-.086.057-.133.081s-.076.038-.11.057c-.162.09.186-.052,0,0a2.157,2.157,0,0,1-.248.067l-.062.014h0c.019,0,.043,0,.062-.009a.728.728,0,0,1-.1,0,1.548,1.548,0,0,0-.3,0c.11-.034.172.029.062.009-.062-.014-.124-.024-.186-.043-.043-.009-.081-.029-.119-.038-.2-.052.129.081.024.014-.076-.052-.167-.086-.248-.133a.686.686,0,0,1-.105-.072c0-.009.153.138.048.034-.081-.076-.158-.172-.239-.243s.086.153.034.043a.935.935,0,0,0-.086-.129c-.019-.029-.133-.2-.115-.225s.067.2.029.052c-.014-.052-.034-.1-.048-.153s-.024-.105-.034-.158c-.043-.187,0,.2,0,0V69.4c0-.2,0,.062-.014.057s.024-.138.029-.158a1.438,1.438,0,0,1,.081-.272c.009,0-.11.22-.019.052.029-.057.057-.11.09-.167.019-.034.048-.072.067-.105.1-.158-.034.052-.038.043s.2-.21.214-.225.086-.086.1-.081-.172.115-.043.038c.09-.052.176-.105.272-.158.176-.1-.148.029-.024.009a.961.961,0,0,0,.153-.048c.081-.024.172-.029.253-.052-.191.062-.133.014-.057.014.057,0,.11,0,.167,0s.09,0,.133,0c.076,0,.043,0-.09-.014a.66.66,0,0,1,.1.019,1.433,1.433,0,0,1,.339.1c0,.009-.22-.11-.052-.019.057.029.11.057.167.09.034.019.072.048.105.067.176.105-.144-.138,0,0,.076.072.148.144.22.22.129.133-.043-.043-.034-.048s.09.133.105.158.043.072.062.11c.11.205.024,0,0,0a1.333,1.333,0,0,1,.1.339c0,.009,0,.019,0,.034h0c-.009-.086-.014-.081,0,0a.345.345,0,0,0-.009.125.955.955,0,1,0,1.91,0A3.153,3.153,0,0,0,12.269,66.6a3.093,3.093,0,0,0-3.351.9,3.1,3.1,0,1,0,5.438,2.029.955.955,0,0,0-1.911,0Z" transform="translate(-8.143 -52.385)"/>
</svg>
