<svg xmlns="http://www.w3.org/2000/svg" width="15" height="14.929" viewBox="0 0 15 14.929">
  <g id="グループ_68" data-name="グループ 68" transform="translate(-2150 -514)">
    <g id="np_fire_888691_000000" transform="translate(2133.492 497.336)">
      <path id="パス_13" data-name="パス 13" d="M30.539,63.806a.6.6,0,0,1-.28-.046L17.2,60.027a.945.945,0,1,1,.513-1.819L30.772,61.94a.933.933,0,0,1,.653,1.166.9.9,0,0,1-.886.7Z" transform="translate(0 -32.213)" fill="#fff"/>
      <path id="パス_14" data-name="パス 14" d="M17.637,63.806a.9.9,0,0,1-.886-.7A.932.932,0,0,1,17.4,61.94l13.062-3.732a.945.945,0,0,1,.513,1.819L17.917,63.76a.593.593,0,0,1-.28.046Z" transform="translate(-0.161 -32.213)" fill="#fff"/>
      <path id="パス_15" data-name="パス 15" d="M41.949,23.2a3.265,3.265,0,0,1-6.531,0,7.058,7.058,0,0,1,1.4-4.2c2.473,2.473,2.985-.046,2.333-2.333C39.15,16.665,41.949,18.064,41.949,23.2Z" transform="translate(-14.676)" fill="#fff"/>
    </g>
  </g>
</svg>
