<svg xmlns="http://www.w3.org/2000/svg" width="24" height="24" viewBox="0 0 24 24">
  <g id="wb_incandescent" transform="translate(226 2924) rotate(180)">
    <path id="Icon" d="M215,2923h-2v-3h2v3Zm6.03-2.49h0l-1.789-1.8,1.4-1.4,1.8,1.79-1.41,1.41Zm-14.071-.01h0l-1.409-1.409,1.79-1.8,1.409,1.41-1.789,1.8Zm7.041-2.451a6,6,0,0,1-5.172-9.037A6.071,6.071,0,0,1,211,2906.86v-4.811h6v4.811a6.07,6.07,0,0,1,2.171,2.153,6,6,0,0,1-5.171,9.037Zm-1-14v3.96l-1,.58a4,4,0,1,0,4,0l-1-.58v-3.96h-2ZM225,2913h-3v-2h3v2Zm-19,0h-3v-2h3v2Z" fill="#5c6066"/>
  </g>
</svg>
