<svg xmlns="http://www.w3.org/2000/svg" viewBox="0 0 362.57 76.13"><defs><style>.cls-1{fill:#fff;}</style></defs><title>logo-05</title><g id="レイヤー_2" data-name="レイヤー 2"><g id="レイヤー_1-2" data-name="レイヤー 1"><path class="cls-1" d="M128.12,52.35c0,.79-.34,1.19-1,1.19H113.63c-.57,0-.86.35-.86,1.07a27.59,27.59,0,0,0,.36,3.63,27.59,27.59,0,0,1,.36,3.63c0,.72-.3,1.08-.91,1.08H95.14c-.63,0-1-.4-1.09-1.19l-.72-7c-.09-.84-.46-1.25-1.09-1.25H74.9c-.67,0-1-.4-1-1.19V40c0-.84.33-1.25,1-1.25H90.76c.57,0,.86-.36.86-1.07,0-2.11-.43-3.16-1.29-3.16H74.9c-.67,0-1-.4-1-1.19V20.84c0-.79.33-1.19,1-1.19h14c.57,0,.85-.36.85-1.09a10.48,10.48,0,0,0-.09-1.17,8.92,8.92,0,0,1-.1-1.12c0-.72.29-1.09.86-1.09h17.44c.7,0,1.11.75,1.24,2.24s.52,2.23,1.19,2.23h16.86c.67,0,1,.4,1,1.19V33.29c0,.79-.34,1.19-1,1.19H111.73c-.58,0-.86.36-.86,1.07,0,.44,0,1.07.14,1.91s.48,1.25,1.14,1.25h15c.67,0,1,.41,1,1.25Zm46.45-22.1q0,.12-2.81,15.72c-.16.84-.56,1.25-1.19,1.25H157.32c-.51,0-.76-.31-.76-.95a10.22,10.22,0,0,1,.38-2.26,10.16,10.16,0,0,0,.38-2.21c0-.63-.27-.95-.81-.95h-3.43c-.67,0-1,.38-.91,1.13v.12l1.48,19.72c.07.75-.24,1.13-.9,1.13h-13.2c-.67,0-1-.42-1.1-1.25L137,42.1c-.07-.83-.42-1.25-1-1.25H132c-.63,0-1-.39-1-1.19V30.49c0-.83.51-1.25,1.52-1.25q.28,0,.93.06c.43,0,.76.06,1,.06.95,0,1.43-.4,1.43-1.19,0-.12,0-.33-.05-.63s0-.52,0-.68c0-.72.3-1.08.91-1.08H150c.61,0,1,.59,1.1,1.76s.49,1.76,1.09,1.76h21.59C174.3,29.3,174.57,29.62,174.57,30.25ZM198.91,29c0,.83-.31,1.25-.95,1.25H178.14c-.7,0-1-.42-1-1.25V16.61c0-.79.34-1.19,1-1.19h19.82c.67,0,1,.4,1,1.19Zm27.35,20.85c0,.79-.31,1.27-.95,1.42L178,63c-.57,0-.86-.34-.86-1V44.19c0-.84.32-1.33,1-1.49L225.4,31c.58,0,.86.34.86,1ZM280.2,61.7c0,.83-.34,1.25-1,1.25h-48c-.67,0-1-.42-1-1.25V16.61c0-.79.31-1.19.95-1.19h48c.7,0,1.05.4,1.05,1.19ZM260.8,31.44c0-.83-.33-1.25-1-1.25h-9.19c-.7,0-1.05.42-1.05,1.25V46.93c0,.79.33,1.19,1,1.19h9.2c.66,0,1-.4,1-1.19Zm79.38-15.07-5.95,45.39c-.1.79-.48,1.19-1.15,1.19H315.6c-.67,0-1-.4-.86-1.19l4.05-30.5c.09-.79-.16-1.19-.76-1.19H306.5c-.64,0-1,.4-1.1,1.19l-1.67,13.05c-.09.79-.46,1.19-1.09,1.19H285.15c-.67,0-.95-.4-.86-1.19l3.48-27.94c.1-.79.48-1.19,1.15-1.19h50.45C340,15.18,340.28,15.58,340.18,16.37Zm10,19.84h-7c-.7,0-1-.42-1-1.25V16.43c0-.83.33-1.25,1-1.25h7.05c.67,0,1,.42,1,1.25V35C351.14,35.79,350.81,36.21,350.14,36.21ZM362.57,35c0,.83-.33,1.25-1,1.25h-7.05c-.7,0-1-.42-1-1.25V16.43c0-.83.34-1.25,1-1.25h7.06c.69,0,1,.42,1,1.25ZM.51,74a4,4,0,0,0,3.55,2.09H19.49a4.09,4.09,0,0,0,3.44-1.88L36,53.8a3.28,3.28,0,0,1,5.51,0l13.1,20.45a4.09,4.09,0,0,0,3.44,1.88H73.49a4.05,4.05,0,0,0,3.44-6.2L42.1,13.62,48.19,4.2a2.72,2.72,0,0,0-4.57-3l-4.85,7.5L33.93,1.25a2.72,2.72,0,1,0-4.57,3l6.09,9.42L.62,69.93A4,4,0,0,0,.51,74Z"/></g></g></svg>