<svg fill="#fff" height="512" viewBox="0 0 24 24" width="512" xmlns="http://www.w3.org/2000/svg"><g id="_27_Bookmark_Remove_Bookmark" data-name="27 Bookmark Remove, Bookmark"><path d="m16 15h2v7a1 1 0 0 1 -.5.86.9.9 0 0 1 -.5.14 1 1 0 0 1 -.5-.13l-6.5-3.72-6.5 3.72a1 1 0 0 1 -1 0 1 1 0 0 1 -.5-.87v-18a3 3 0 0 1 3-3h5v2h-5a1 1 0 0 0 -1 1v16.28l5.5-3.15a1 1 0 0 1 1 0l5.5 3.15zm6-8a6 6 0 1 1 -6-6 6 6 0 0 1 6 6zm-2 0a4 4 0 1 0 -4 4 4 4 0 0 0 4-4zm-2.71-2.71-1.29 1.3-1.29-1.3-1.42 1.42 1.3 1.29-1.3 1.29 1.42 1.42 1.29-1.3 1.29 1.3 1.42-1.42-1.3-1.29 1.3-1.29z"/></g></svg>